<svg width="50" height="50" viewBox="0 0 50 50" fill="none" xmlns="http://www.w3.org/2000/svg">
<g clip-path="url(#clip0_1_26)">
<path d="M48.5563 8.91094L37.0979 4.32767C36.8298 4.215 36.5408 4.16034 36.25 4.16725H33.9583C32.6979 4.16725 31.6667 5.19849 31.6667 6.45889C31.6667 8.97969 29.6042 11.0422 27.0833 11.0422C24.5625 11.0422 22.5 8.97969 22.5 6.45889C22.5 5.19849 21.4688 4.16725 20.2083 4.16725H17.9167C17.6188 4.16725 17.3438 4.21308 17.0688 4.32767L5.61042 8.91094C5.18402 9.08076 4.81844 9.3747 4.56102 9.75468C4.30361 10.1347 4.16623 10.5832 4.16667 11.0422V24.792C4.16667 26.0524 5.19792 27.0836 6.45834 27.0836H11.0417V47.7084C11.0417 48.9688 12.0729 50 13.3333 50H40.8333C42.0938 50 43.125 48.9688 43.125 47.7084V27.0836H47.7083C48.9688 27.0836 50 26.0524 50 24.792V11.0422C50.0004 10.5832 49.8631 10.1347 49.6056 9.75468C49.3482 9.3747 48.9827 9.08076 48.5563 8.91094ZM45.4167 22.5004H38.5417V45.4167H15.625V22.5004H8.75001V12.6005L18.2146 8.81928C19.2458 12.738 22.8438 15.6484 27.0833 15.6484C31.3229 15.6484 34.8979 12.7609 35.9521 8.81928L45.4167 12.6005V22.5004Z" fill="#4F772D"/>
</g>
<defs>
<clipPath id="clip0_1_26">
<rect width="50" height="50" fill="white"/>
</clipPath>
</defs>
</svg>
