<svg width="50" height="50" viewBox="0 0 50 50" fill="none" xmlns="http://www.w3.org/2000/svg">
<path d="M43.2708 19.0833L40.4167 10.5208C40.0037 9.27384 39.2071 8.1893 38.1407 7.42226C37.0743 6.65521 35.7928 6.24491 34.4792 6.25H15.5C14.1872 6.24808 12.9071 6.65961 11.8413 7.42622C10.7755 8.19282 9.97823 9.27556 9.5625 10.5208L6.70833 19.0833C5.20833 19.7083 4.14583 21.2083 4.14583 22.9167V33.3333C4.14583 34.8958 5.02083 36.25 6.31249 36.9583C6.29166 37.1042 6.22916 37.2292 6.22916 37.375V41.6667C6.22916 42.8125 7.16666 43.75 8.3125 43.75H10.3958C11.5417 43.75 12.4792 42.8125 12.4792 41.6667V37.5H37.4792V41.6667C37.4792 42.8125 38.4167 43.75 39.5625 43.75H41.6458C42.7917 43.75 43.7292 42.8125 43.7292 41.6667V37.375C43.7292 37.2292 43.6667 37.1042 43.6458 36.9583C44.9375 36.25 45.8125 34.8958 45.8125 33.3333V22.9167C45.8125 21.1875 44.75 19.7083 43.25 19.0833H43.2708ZM8.33333 33.3333V22.9167H41.6667V33.3333H8.33333ZM15.5 10.4167H34.5C34.9368 10.4155 35.3628 10.5517 35.718 10.8059C36.0731 11.0601 36.3394 11.4195 36.4792 11.8333L38.7917 18.75H11.2292L13.5417 11.8333C13.6814 11.4195 13.9477 11.0601 14.3029 10.8059C14.658 10.5517 15.0841 10.4155 15.5208 10.4167H15.5Z" fill="#4F772D"/>
<path d="M13.5417 25C12.7129 25 11.918 25.3292 11.332 25.9153C10.7459 26.5013 10.4167 27.2962 10.4167 28.125C10.4167 28.9538 10.7459 29.7487 11.332 30.3347C11.918 30.9208 12.7129 31.25 13.5417 31.25C14.3705 31.25 15.1653 30.9208 15.7514 30.3347C16.3374 29.7487 16.6667 28.9538 16.6667 28.125C16.6667 27.2962 16.3374 26.5013 15.7514 25.9153C15.1653 25.3292 14.3705 25 13.5417 25ZM36.4583 25C35.6295 25 34.8347 25.3292 34.2486 25.9153C33.6626 26.5013 33.3333 27.2962 33.3333 28.125C33.3333 28.9538 33.6626 29.7487 34.2486 30.3347C34.8347 30.9208 35.6295 31.25 36.4583 31.25C37.2871 31.25 38.082 30.9208 38.668 30.3347C39.2541 29.7487 39.5833 28.9538 39.5833 28.125C39.5833 27.2962 39.2541 26.5013 38.668 25.9153C38.082 25.3292 37.2871 25 36.4583 25Z" fill="#4F772D"/>
</svg>
