<svg xmlns="http://www.w3.org/2000/svg" xmlns:xlink="http://www.w3.org/1999/xlink" width="1080" zoomAndPan="magnify" viewBox="0 0 810 809.999993" height="1080" preserveAspectRatio="xMidYMid meet" version="1.2"><g id="5f9b6e6583"><path style=" stroke:none;fill-rule:nonzero;fill:#90a955;fill-opacity:1;" d="M 116.984375 658.570312 C 198.746094 791.828125 298.921875 809.570312 393.941406 769.570312 C 393.390625 750.335938 391.898438 729.597656 389.066406 707.761719 C 370.507812 564.605469 188.023438 327.027344 185.84375 324.191406 C 188.054688 326.03125 372.855469 479.957031 435.308594 672.285156 C 443.230469 696.6875 448.53125 718.515625 451.722656 738.058594 C 550.699219 671.585938 597.53125 567.78125 506.566406 419.53125 C 411.765625 265.027344 95.625 186.773438 95.625 186.773438 C 95.625 186.773438 22.183594 504.066406 116.984375 658.570312 Z M 116.984375 658.570312 "/><path style=" stroke:none;fill-rule:nonzero;fill:#31572c;fill-opacity:1;" d="M 327.410156 239.675781 C 397.074219 272.65625 468.4375 316.492188 513.109375 371.085938 C 579.792969 266.792969 636.441406 155.0625 637.785156 151.8125 C 637.207031 155.242188 608.136719 279.515625 537.597656 406.855469 C 574.066406 469.46875 585.660156 523.980469 579.058594 570.945312 C 625.757812 554.765625 669.582031 516.074219 706.75 446.914062 C 787.902344 295.902344 701.394531 0.292969 701.394531 0.292969 C 701.394531 0.292969 410.527344 90.234375 327.410156 239.675781 Z M 327.410156 239.675781 "/></g></svg>