<svg width="50" height="50" viewBox="0 0 50 50" fill="none" xmlns="http://www.w3.org/2000/svg">
<path d="M45.4167 18.75C45.1458 16.2083 44.75 13.875 44.25 11.8333C43.7292 9.72917 43.0833 8.04167 42.375 6.8125C41.0833 4.625 39.5833 4.14584 38.5625 4.14584C37.5417 4.14584 36.0417 4.60417 34.75 6.8125C34.0417 8.02084 33.4167 9.66667 32.8958 11.7292C27.9167 10 22.1458 10 17.1667 11.7292C16.6458 9.66667 16.0208 8.02084 15.3125 6.8125C14.0208 4.625 12.5208 4.14584 11.5 4.14584C10.4792 4.14584 8.97917 4.60417 7.68751 6.8125C6.95834 8.04167 6.33334 9.72917 5.81251 11.8333C5.31251 13.875 4.91667 16.1875 4.64584 18.75C4.25001 22.6042 4.22917 27.2292 4.22917 28.125C4.22917 31.125 5.12501 33.9375 6.66667 36.4167L4.89584 38.1875L5.62501 38.9167L7.25001 37.2917C7.89584 38.2083 8.64584 39.0625 9.45834 39.8542L8 41.3125L8.72917 42.0417L10.2083 40.5625C13.9792 43.8125 19.2292 45.8333 25.0208 45.8333C30.8125 45.8333 36.0625 43.8125 39.8333 40.5625L41.3125 42.0417L42.0417 41.3125L40.5833 39.8542C41.4167 39.0625 42.1458 38.2083 42.7917 37.2917L44.4167 38.9167L45.1458 38.1875L43.375 36.4167C44.9167 33.9375 45.8125 31.125 45.8125 28.125C45.8125 27.2292 45.8125 22.6042 45.3958 18.75H45.4167ZM39.8125 34.2917C39.2083 35.2292 38.5 36.1042 37.6458 36.9167L35.7708 35.0417L35.0417 35.7708L36.875 37.6042C33.8542 40.1042 29.6458 41.6667 25 41.6667C20.3542 41.6667 16.1458 40.1042 13.125 37.6042L14.9583 35.7708L14.2292 35.0417L12.3542 36.9167C11.5208 36.125 10.7917 35.25 10.1875 34.2917L11.8333 32.6458L11.1042 31.9167L9.64584 33.375C8.81251 31.75 8.33334 29.9792 8.33334 28.125C8.33334 27.2708 8.33334 22.8333 8.72917 19.1875C8.97917 16.875 9.33334 14.6667 9.79167 12.8542C10.3333 10.7083 10.8542 9.54167 11.2292 8.9375C11.3125 8.79167 11.3958 8.66667 11.4583 8.58334C11.5208 8.66667 11.6042 8.79167 11.6875 8.9375C12.0417 9.54167 12.5833 10.7083 13.125 12.8542C13.2917 13.5208 13.4375 14.2292 13.5833 14.9792L14.0833 17.6667L16.5417 16.4792C21.6875 14 28.3333 14 33.4792 16.4792L35.9375 17.6667L36.4375 14.9792C36.5833 14.2292 36.7292 13.5 36.8958 12.8333C37.4375 10.6875 37.9583 9.52084 38.3333 8.91667C38.4167 8.77084 38.5 8.64584 38.5625 8.5625C38.625 8.64584 38.7083 8.77084 38.7917 8.91667C39.1458 9.52084 39.6875 10.6875 40.2292 12.8333C40.6875 14.6458 41.0625 16.8333 41.2917 19.1667C41.6667 22.8125 41.6875 27.25 41.6875 28.1042C41.6875 29.9583 41.2292 31.7292 40.375 33.3542L38.9167 31.8958L38.1875 32.625L39.8333 34.2708L39.8125 34.2917Z" fill="#4F772D"/>
<path d="M34.375 22.9167C33.9646 22.9167 33.5583 22.9975 33.1791 23.1545C32.8 23.3116 32.4555 23.5418 32.1653 23.832C31.8751 24.1221 31.6449 24.4666 31.4879 24.8458C31.3308 25.2249 31.25 25.6313 31.25 26.0417C31.25 26.452 31.3308 26.8584 31.4879 27.2375C31.6449 27.6167 31.8751 27.9612 32.1653 28.2514C32.4555 28.5416 32.8 28.7717 33.1791 28.9288C33.5583 29.0858 33.9646 29.1667 34.375 29.1667C34.7854 29.1667 35.1917 29.0858 35.5709 28.9288C35.95 28.7717 36.2945 28.5416 36.5847 28.2514C36.8749 27.9612 37.1051 27.6167 37.2621 27.2375C37.4192 26.8584 37.5 26.452 37.5 26.0417C37.5 25.6313 37.4192 25.2249 37.2621 24.8458C37.1051 24.4666 36.8749 24.1221 36.5847 23.832C36.2945 23.5418 35.95 23.3116 35.5709 23.1545C35.1917 22.9975 34.7854 22.9167 34.375 22.9167Z" fill="#4F772D"/>
<path d="M15.625 22.9167C15.2146 22.9167 14.8083 22.9975 14.4291 23.1545C14.05 23.3116 13.7055 23.5418 13.4153 23.832C13.1251 24.1221 12.8949 24.4666 12.7379 24.8458C12.5808 25.2249 12.5 25.6313 12.5 26.0417C12.5 26.452 12.5808 26.8584 12.7379 27.2375C12.8949 27.6167 13.1251 27.9612 13.4153 28.2514C13.7055 28.5416 14.05 28.7717 14.4291 28.9288C14.8083 29.0858 15.2146 29.1667 15.625 29.1667C16.0354 29.1667 16.4417 29.0858 16.8209 28.9288C17.2 28.7717 17.5445 28.5416 17.8347 28.2514C18.1249 27.9612 18.3551 27.6167 18.5121 27.2375C18.6692 26.8584 18.75 26.452 18.75 26.0417C18.75 25.6313 18.6692 25.2249 18.5121 24.8458C18.3551 24.4666 18.1249 24.1221 17.8347 23.832C17.5445 23.5418 17.2 23.3116 16.8209 23.1545C16.4417 22.9975 16.0354 22.9167 15.625 22.9167Z" fill="#4F772D"/>
<path d="M26.6458 34.8125C26.25 34.4167 26.0417 33.8958 26.0417 33.3333C26.0417 33.2708 26.0625 33.2292 26.0833 33.1667C27.8542 32.6458 29.1667 30.9167 29.1667 29.1667C29.1667 28.0208 27.2917 27.0833 25 27.0833C22.7083 27.0833 20.8333 28.0208 20.8333 29.1667C20.8333 30.9167 22.1458 32.6458 23.9167 33.1667C23.9167 33.2292 23.9583 33.2708 23.9583 33.3333C23.9583 33.8958 23.75 34.4167 23.3542 34.8125C22.5625 35.6042 21.1875 35.6042 20.4167 34.8125L18.9375 36.2917C19.7292 37.0833 20.7708 37.5208 21.875 37.5208C22.9792 37.5208 24.0417 37.0833 24.8125 36.2917C24.875 36.2292 24.9375 36.1458 25 36.0833C25.0625 36.1458 25.1042 36.2292 25.1875 36.2917C25.9792 37.0833 27.0208 37.5208 28.125 37.5208C29.2292 37.5208 30.2917 37.0833 31.0625 36.2917L29.5833 34.8125C28.7917 35.6042 27.4167 35.6042 26.6458 34.8125Z" fill="#4F772D"/>
</svg>
