<svg width="40" height="40" viewBox="0 0 40 40" fill="none" xmlns="http://www.w3.org/2000/svg">
<path d="M17.5 8.33334L19.1667 7.21667L20.8333 8.33334L20.2833 6.38334L21.6667 5.2L20 5L19.1667 3.33334L18.3333 5L16.6667 5.2L18.05 6.38334L17.5 8.33334Z" fill="#4F772D"/>
<path d="M33.8833 22.7833L32.5 20L31.1167 22.7833L28.3333 23.1333L30.65 25.1L29.7167 28.3333L32.5 26.4833L35.2833 28.3333L34.35 25.1L36.6667 23.1333L33.8833 22.7833Z" fill="#4F772D"/>
<path d="M8.05 15L10.8333 13.15L13.6167 15L12.6833 11.75L15 9.8L12.2167 9.45L10.8333 6.66666L9.45 9.45L6.66666 9.8L8.98333 11.75L8.05 15Z" fill="#4F772D"/>
<path d="M31.1833 3.81667C30.5333 3.16667 29.4833 3.16667 28.8333 3.81667L3.81666 28.8167C3.16666 29.4667 3.16666 30.5167 3.81666 31.1667L8.81666 36.1667C9.15 36.5 9.56666 36.65 10 36.65C10.4333 36.65 10.85 36.4833 11.1833 36.1667L36.1833 11.1667C36.8333 10.5167 36.8333 9.46667 36.1833 8.81667L31.1833 3.81667ZM10 32.65L7.35 30L22.5 14.85L25.15 17.5L10 32.65ZM27.5 15.15L24.85 12.5L30 7.35L32.65 10L27.5 15.15Z" fill="#4F772D"/>
</svg>
