<svg width="50" height="50" viewBox="0 0 50 50" fill="none" xmlns="http://www.w3.org/2000/svg">
<path d="M43.75 6.25H29.1667C27.5625 6.25 26.1042 6.875 25 7.875C23.8958 6.875 22.4375 6.25 20.8333 6.25H6.25001C5.10417 6.25 4.16667 7.1875 4.16667 8.33333V39.5833C4.16667 40.7292 5.10417 41.6667 6.25001 41.6667H18.25C19.3542 41.6667 20.4167 42.1042 21.1875 42.8958L23.5208 45.2292C23.5208 45.2292 23.5625 45.25 23.5833 45.2708C23.7708 45.4375 23.9583 45.5833 24.1875 45.6875C24.4375 45.7917 24.7083 45.8542 24.9792 45.8542C25.25 45.8542 25.5208 45.7917 25.7708 45.6875C26 45.5833 26.2083 45.4375 26.375 45.2708C26.375 45.2708 26.4167 45.25 26.4375 45.2292L28.7708 42.8958C29.5417 42.125 30.625 41.6667 31.7083 41.6667H43.7083C44.8542 41.6667 45.7917 40.7292 45.7917 39.5833V8.33333C45.7917 7.1875 44.8542 6.25 43.7083 6.25H43.75ZM18.25 37.5H8.33334V10.4167H20.8333C21.9792 10.4167 22.9167 11.3542 22.9167 12.5V38.9375C21.5417 38.0208 19.9167 37.5 18.25 37.5ZM41.6667 37.5H31.75C30.0833 37.5 28.4583 38.0208 27.0833 38.9375V12.5C27.0833 11.3542 28.0208 10.4167 29.1667 10.4167H41.6667V37.5Z" fill="#4F772D"/>
</svg>
