<svg width="40" height="40" viewBox="0 0 40 40" fill="none" xmlns="http://www.w3.org/2000/svg">
<path d="M5 21.6667H6.66667V33.3333C6.66667 35.1667 8.16667 36.6667 10 36.6667H30C31.8333 36.6667 33.3333 35.1667 33.3333 33.3333V21.6667H35C35.6667 21.6667 36.2833 21.2667 36.5333 20.6333C36.7833 20.0167 36.65 19.3 36.1667 18.8167L21.1833 3.81667C21.0291 3.66216 20.846 3.53958 20.6444 3.45595C20.4428 3.37231 20.2266 3.32926 20.0083 3.32926C19.7901 3.32926 19.5739 3.37231 19.3723 3.45595C19.1707 3.53958 18.9875 3.66216 18.8333 3.81667L3.81667 18.8167C3.33334 19.3 3.2 20.0167 3.45 20.6333C3.7 21.25 4.31667 21.6667 4.98334 21.6667H5ZM20 7.35L30 17.35V33.3333H10V17.35L20 7.35Z" fill="#4F772D"/>
</svg>
