<svg width="50" height="50" viewBox="0 0 50 50" fill="none" xmlns="http://www.w3.org/2000/svg">
<path d="M43.1458 12.5833C42.8112 12.5144 42.4646 12.5298 42.1373 12.628C41.8101 12.7261 41.5123 12.9041 41.2708 13.1458L34.6458 19.7708L30.2292 15.3542L36.8542 8.72917C37.0975 8.48877 37.2765 8.19109 37.3748 7.86348C37.4731 7.53586 37.4875 7.1888 37.4167 6.85417C37.2708 6.16667 36.8125 5.60417 36.1667 5.33333C33.3158 4.1495 30.1772 3.84027 27.15 4.44496C24.1229 5.04964 21.344 6.54092 19.1667 8.72917C17.1542 10.7394 15.7295 13.2614 15.0465 16.0226C14.3635 18.7839 14.4483 21.6793 15.2917 24.3958L4.79167 34.8958C4.39583 35.2917 4.1875 35.8125 4.1875 36.375C4.1875 36.9375 4.41667 37.4583 4.79167 37.8542L12.1667 45.2292C12.5625 45.625 13.0833 45.8333 13.6458 45.8333C14.2083 45.8333 14.7292 45.6042 15.125 45.2292L25.625 34.7292C31.125 36.4375 37.1458 34.9792 41.2917 30.8542C43.4799 28.6768 44.9712 25.8979 45.5759 22.8708C46.1806 19.8437 45.8713 16.7051 44.6875 13.8542C44.4167 13.2083 43.8542 12.75 43.1667 12.6042L43.1458 12.5833ZM38.3125 27.875C36.7128 29.4721 34.6771 30.5613 32.4608 31.006C30.2445 31.4507 27.9462 31.2312 25.8542 30.375C25.0833 30.0625 24.1875 30.2292 23.5833 30.8333L13.625 40.7917L9.20833 36.375L19.1667 26.4167C19.7708 25.8125 19.9375 24.9375 19.625 24.1458C18.7576 22.0557 18.5322 19.7546 18.9774 17.5359C19.4227 15.3171 20.5184 13.2812 22.125 11.6875C23.3178 10.4926 24.7599 9.57603 26.3482 9.00338C27.9364 8.43074 29.6316 8.21616 31.3125 8.375L25.7917 13.8958C25.5985 14.0886 25.4453 14.3175 25.3408 14.5695C25.2362 14.8216 25.1824 15.0917 25.1824 15.3646C25.1824 15.6374 25.2362 15.9076 25.3408 16.1596C25.4453 16.4117 25.5985 16.6406 25.7917 16.8333L33.1667 24.2083C33.5625 24.6042 34.0833 24.8125 34.6458 24.8125C35.2083 24.8125 35.7292 24.5833 36.125 24.2083L41.6458 18.6875C41.9792 22.0417 40.8125 25.4167 38.3333 27.8958L38.3125 27.875Z" fill="#4F772D"/>
</svg>
