<svg width="40" height="40" viewBox="0 0 40 40" fill="none" xmlns="http://www.w3.org/2000/svg">
<path d="M33.75 6.25C31.8667 4.36667 29.3667 3.33334 26.7 3.33334C24.8333 3.33334 23.0333 3.85 21.4833 4.81667L21.0833 4.41667C20.4333 3.76667 19.3833 3.76667 18.7333 4.41667L16.0833 7.06667C15.4333 7.71667 15.4333 8.76667 16.0833 9.41667L16.3 9.63334L9.63333 16.3L9.41666 16.0833C8.76666 15.4333 7.71666 15.4333 7.06666 16.0833L4.41666 18.7333C3.76666 19.3833 3.76666 20.4333 4.41666 21.0833L4.81666 21.4833C3.85 23.0333 3.33333 24.8333 3.33333 26.7C3.33333 29.3667 4.36666 31.8667 6.24999 33.75C8.13333 35.6333 10.6333 36.6667 13.3 36.6667C15.1667 36.6667 16.9667 36.15 18.5167 35.1833L18.9167 35.5833C19.5667 36.2333 20.6167 36.2333 21.2667 35.5833L23.9167 32.9333C24.5667 32.2833 24.5667 31.2333 23.9167 30.5833L23.7 30.3667L30.3667 23.7L30.5833 23.9167C31.2333 24.5667 32.2833 24.5667 32.9333 23.9167L35.5833 21.2667C36.2333 20.6167 36.2333 19.5667 35.5833 18.9167L35.1833 18.5167C36.15 16.9667 36.6667 15.1667 36.6667 13.3C36.6667 10.6333 35.6333 8.13334 33.75 6.25ZM8.61666 31.3833C7.36666 30.1333 6.66666 28.4667 6.66666 26.7C6.66666 24.9333 7.34999 23.2667 8.61666 22.0167L22.0167 8.61667C23.2667 7.36667 24.9333 6.66667 26.7 6.66667C28.4667 6.66667 30.1333 7.35 31.3833 8.61667C32.6333 9.86667 33.3333 11.5333 33.3333 13.3C33.3333 15.0667 32.65 16.7333 31.3833 17.9833L17.9833 31.3833C16.7333 32.6333 15.0667 33.3333 13.3 33.3333C11.5333 33.3333 9.86666 32.65 8.61666 31.3833Z" fill="#4F772D"/>
<path d="M23.3333 12.5C23.1123 12.5 22.9004 12.5878 22.7441 12.7441C22.5878 12.9004 22.5 13.1123 22.5 13.3333C22.5 13.5543 22.5878 13.7663 22.7441 13.9226C22.9004 14.0789 23.1123 14.1667 23.3333 14.1667C23.5543 14.1667 23.7663 14.0789 23.9226 13.9226C24.0789 13.7663 24.1667 13.5543 24.1667 13.3333C24.1667 13.1123 24.0789 12.9004 23.9226 12.7441C23.7663 12.5878 23.5543 12.5 23.3333 12.5Z" fill="#4F772D"/>
<path d="M26.6667 15.8333C26.4456 15.8333 26.2337 15.9211 26.0774 16.0774C25.9211 16.2337 25.8333 16.4457 25.8333 16.6667C25.8333 16.8877 25.9211 17.0996 26.0774 17.2559C26.2337 17.4122 26.4456 17.5 26.6667 17.5C26.8877 17.5 27.0996 17.4122 27.2559 17.2559C27.4122 17.0996 27.5 16.8877 27.5 16.6667C27.5 16.4457 27.4122 16.2337 27.2559 16.0774C27.0996 15.9211 26.8877 15.8333 26.6667 15.8333Z" fill="#4F772D"/>
<path d="M25.8333 10C25.6123 10 25.4004 10.0878 25.2441 10.2441C25.0878 10.4004 25 10.6123 25 10.8333C25 11.0543 25.0878 11.2663 25.2441 11.4226C25.4004 11.5789 25.6123 11.6667 25.8333 11.6667C26.0543 11.6667 26.2663 11.5789 26.4226 11.4226C26.5789 11.2663 26.6667 11.0543 26.6667 10.8333C26.6667 10.6123 26.5789 10.4004 26.4226 10.2441C26.2663 10.0878 26.0543 10 25.8333 10Z" fill="#4F772D"/>
<path d="M29.1667 13.3333C28.9456 13.3333 28.7337 13.4211 28.5774 13.5774C28.4211 13.7337 28.3333 13.9457 28.3333 14.1667C28.3333 14.3877 28.4211 14.5996 28.5774 14.7559C28.7337 14.9122 28.9456 15 29.1667 15C29.3877 15 29.5996 14.9122 29.7559 14.7559C29.9122 14.5996 30 14.3877 30 14.1667C30 13.9457 29.9122 13.7337 29.7559 13.5774C29.5996 13.4211 29.3877 13.3333 29.1667 13.3333Z" fill="#4F772D"/>
<path d="M15 20.8333C14.779 20.8333 14.567 20.9211 14.4107 21.0774C14.2545 21.2337 14.1667 21.4457 14.1667 21.6667C14.1667 21.8877 14.2545 22.0996 14.4107 22.2559C14.567 22.4122 14.779 22.5 15 22.5C15.221 22.5 15.433 22.4122 15.5893 22.2559C15.7455 22.0996 15.8333 21.8877 15.8333 21.6667C15.8333 21.4457 15.7455 21.2337 15.5893 21.0774C15.433 20.9211 15.221 20.8333 15 20.8333Z" fill="#4F772D"/>
<path d="M18.3333 24.1667C18.1123 24.1667 17.9004 24.2545 17.7441 24.4107C17.5878 24.567 17.5 24.779 17.5 25C17.5 25.221 17.5878 25.433 17.7441 25.5893C17.9004 25.7455 18.1123 25.8333 18.3333 25.8333C18.5543 25.8333 18.7663 25.7455 18.9226 25.5893C19.0789 25.433 19.1667 25.221 19.1667 25C19.1667 24.779 19.0789 24.567 18.9226 24.4107C18.7663 24.2545 18.5543 24.1667 18.3333 24.1667Z" fill="#4F772D"/>
<path d="M12.5 23.3333C12.279 23.3333 12.067 23.4211 11.9107 23.5774C11.7545 23.7337 11.6667 23.9457 11.6667 24.1667C11.6667 24.3877 11.7545 24.5996 11.9107 24.7559C12.067 24.9122 12.279 25 12.5 25C12.721 25 12.933 24.9122 13.0893 24.7559C13.2455 24.5996 13.3333 24.3877 13.3333 24.1667C13.3333 23.9457 13.2455 23.7337 13.0893 23.5774C12.933 23.4211 12.721 23.3333 12.5 23.3333Z" fill="#4F772D"/>
<path d="M15.8333 26.6667C15.6123 26.6667 15.4004 26.7545 15.2441 26.9107C15.0878 27.067 15 27.279 15 27.5C15 27.721 15.0878 27.933 15.2441 28.0893C15.4004 28.2455 15.6123 28.3333 15.8333 28.3333C16.0543 28.3333 16.2663 28.2455 16.4226 28.0893C16.5789 27.933 16.6667 27.721 16.6667 27.5C16.6667 27.279 16.5789 27.067 16.4226 26.9107C16.2663 26.7545 16.0543 26.6667 15.8333 26.6667Z" fill="#4F772D"/>
</svg>
