<svg width="50" height="50" viewBox="0 0 50 50" fill="none" xmlns="http://www.w3.org/2000/svg">
<path d="M25 4.16666C13.5208 4.16666 4.16667 13.5208 4.16667 25C4.16667 36.4792 13.5208 45.8333 25 45.8333C36.4792 45.8333 45.8333 36.4792 45.8333 25C45.8333 13.5208 36.4792 4.16666 25 4.16666ZM37.9792 35.4167H33.3333L30.7292 40.625C28.9375 41.2917 27.0208 41.6667 25 41.6667C22.9792 41.6667 21.0625 41.2917 19.2708 40.625L16.6667 35.4167H12.0208C10.3013 33.2818 9.13495 30.7558 8.62501 28.0625L12.5 22.8958L9.95834 17.8333C10.9381 15.7744 12.3288 13.9378 14.045 12.4366C15.7612 10.9353 17.7665 9.80126 19.9375 9.10416L25 12.4792L30.0625 9.10416C34.4583 10.5208 38.0625 13.7083 40.0417 17.8333L37.5 22.9167L41.375 28.0833C40.8599 30.7648 39.7017 33.2813 38 35.4167H37.9792Z" fill="#4F772D"/>
<path d="M17.7083 22.9167L20.8333 31.25H29.1667L32.2917 22.9167L25 17.7083L17.7083 22.9167Z" fill="#4F772D"/>
</svg>
