<svg xmlns="http://www.w3.org/2000/svg" xmlns:xlink="http://www.w3.org/1999/xlink" width="756" zoomAndPan="magnify" viewBox="0 0 567 141.750002" height="189" preserveAspectRatio="xMidYMid meet" version="1.2"><defs><clipPath id="1c4ceaf303"><path d="M 0.5 108 L 21 108 L 21 141.5 L 0.5 141.5 Z M 0.5 108 "/></clipPath><clipPath id="c11a6fea3a"><path d="M 7 97.855469 L 33 97.855469 L 33 132 L 7 132 Z M 7 97.855469 "/></clipPath><clipPath id="0ef90cc29f"><path d="M 117 40.175781 L 143 40.175781 L 143 75 L 117 75 Z M 117 40.175781 "/></clipPath><clipPath id="0bb50012d3"><path d="M 464 83.359375 L 490 83.359375 L 490 118 L 464 118 Z M 464 83.359375 "/></clipPath><clipPath id="77140fb39b"><path d="M 179 88.535156 L 204 88.535156 L 204 123 L 179 123 Z M 179 88.535156 "/></clipPath><clipPath id="2a89ea8c64"><path d="M 282 141.0625 L 308 141.0625 L 308 141.5 L 282 141.5 Z M 282 141.0625 "/></clipPath><clipPath id="a826608532"><path d="M 532 108 L 562 108 L 562 141.5 L 532 141.5 Z M 532 108 "/></clipPath><clipPath id="7b22d19dfe"><path d="M 547 97.855469 L 566.5 97.855469 L 566.5 132 L 547 132 Z M 547 97.855469 "/></clipPath><clipPath id="6bb2d0ddc0"><path d="M 350 45.339844 L 375 45.339844 L 375 80 L 350 80 Z M 350 45.339844 "/></clipPath><clipPath id="864bce6458"><path d="M 267 123 L 297 123 L 297 141.5 L 267 141.5 Z M 267 123 "/></clipPath><clipPath id="caa9bf8207"><path d="M 282 112.714844 L 308 112.714844 L 308 141.5 L 282 141.5 Z M 282 112.714844 "/></clipPath><clipPath id="1b3bdcfae0"><path d="M 255.023438 87 L 264 87 L 264 97.511719 L 255.023438 97.511719 Z M 255.023438 87 "/></clipPath><clipPath id="d171b9f89b"><path d="M 260 84.035156 L 267 84.035156 L 267 94 L 260 94 Z M 260 84.035156 "/></clipPath><clipPath id="4882454b41"><path d="M 29 42 L 38 42 L 38 52.960938 L 29 52.960938 Z M 29 42 "/></clipPath><clipPath id="6b64b6d27f"><path d="M 33 39.480469 L 41 39.480469 L 41 49 L 33 49 Z M 33 39.480469 "/></clipPath><clipPath id="2b96911241"><path d="M 544 10 L 553 10 L 553 20.71875 L 544 20.71875 Z M 544 10 "/></clipPath><clipPath id="7838bb8221"><path d="M 548 7.238281 L 556 7.238281 L 556 17 L 548 17 Z M 548 7.238281 "/></clipPath><clipPath id="ac2a82e7f5"><path d="M 508 75 L 517 75 L 517 85.609375 L 508 85.609375 Z M 508 75 "/></clipPath><clipPath id="0fd3e01712"><path d="M 513 72.128906 L 520 72.128906 L 520 82 L 513 82 Z M 513 72.128906 "/></clipPath><clipPath id="82fb34dc41"><path d="M 449 32.632812 L 461 32.632812 L 461 48 L 449 48 Z M 449 32.632812 "/></clipPath><clipPath id="cebe3ec346"><path d="M 213 42 L 220 42 L 220 50.65625 L 213 50.65625 Z M 213 42 "/></clipPath><clipPath id="55846a2bb1"><path d="M 216 40.175781 L 222 40.175781 L 222 48 L 216 48 Z M 216 40.175781 "/></clipPath><clipPath id="f51ce3c859"><path d="M 72 111.703125 L 83 111.703125 L 83 127 L 72 127 Z M 72 111.703125 "/></clipPath><clipPath id="bbf319e630"><path d="M 397 112.714844 L 408 112.714844 L 408 128 L 397 128 Z M 397 112.714844 "/></clipPath></defs><g id="ae71d434e2"><g clip-rule="nonzero" clip-path="url(#1c4ceaf303)"><path style=" stroke:none;fill-rule:nonzero;fill:#90a955;fill-opacity:1;" d="M -5.1875 137.136719 C -0.308594 145.085938 5.664062 146.144531 11.332031 143.757812 C 11.300781 142.613281 11.210938 141.375 11.042969 140.070312 C 9.933594 131.53125 -0.949219 117.363281 -1.078125 117.191406 C -0.949219 117.304688 10.074219 126.484375 13.800781 137.957031 C 14.273438 139.410156 14.589844 140.714844 14.777344 141.878906 C 20.683594 137.914062 23.476562 131.722656 18.050781 122.878906 C 12.394531 113.664062 -6.460938 108.996094 -6.460938 108.996094 C -6.460938 108.996094 -10.84375 127.921875 -5.1875 137.136719 Z M -5.1875 137.136719 "/></g><g clip-rule="nonzero" clip-path="url(#c11a6fea3a)"><path style=" stroke:none;fill-rule:nonzero;fill:#31572c;fill-opacity:1;" d="M 7.363281 112.152344 C 11.519531 114.121094 15.777344 116.734375 18.441406 119.992188 C 22.417969 113.769531 25.796875 107.105469 25.878906 106.910156 C 25.84375 107.117188 24.109375 114.527344 19.902344 122.125 C 22.078125 125.859375 22.769531 129.109375 22.375 131.910156 C 25.160156 130.945312 27.773438 128.636719 29.992188 124.511719 C 34.832031 115.503906 29.671875 97.875 29.671875 97.875 C 29.671875 97.875 12.320312 103.238281 7.363281 112.152344 Z M 7.363281 112.152344 "/></g><path style=" stroke:none;fill-rule:nonzero;fill:#90a955;fill-opacity:1;" d="M 104.996094 79.457031 C 109.875 87.40625 115.847656 88.464844 121.515625 86.078125 C 121.484375 84.929688 121.394531 83.691406 121.226562 82.390625 C 120.117188 73.851562 109.234375 59.679688 109.105469 59.511719 C 109.234375 59.621094 120.257812 68.804688 123.984375 80.273438 C 124.457031 81.730469 124.773438 83.03125 124.960938 84.199219 C 130.867188 80.234375 133.660156 74.042969 128.234375 65.199219 C 122.578125 55.984375 103.722656 51.316406 103.722656 51.316406 C 103.722656 51.316406 99.339844 70.242188 104.996094 79.457031 Z M 104.996094 79.457031 "/><g clip-rule="nonzero" clip-path="url(#0ef90cc29f)"><path style=" stroke:none;fill-rule:nonzero;fill:#31572c;fill-opacity:1;" d="M 117.546875 54.46875 C 121.703125 56.4375 125.960938 59.050781 128.625 62.308594 C 132.601562 56.089844 135.980469 49.421875 136.0625 49.230469 C 136.027344 49.433594 134.292969 56.847656 130.085938 64.441406 C 132.261719 68.175781 132.953125 71.429688 132.558594 74.230469 C 135.34375 73.265625 137.957031 70.957031 140.175781 66.832031 C 145.015625 57.824219 139.855469 40.191406 139.855469 40.191406 C 139.855469 40.191406 122.503906 45.558594 117.546875 54.46875 Z M 117.546875 54.46875 "/></g><path style=" stroke:none;fill-rule:nonzero;fill:#90a955;fill-opacity:1;" d="M 451.980469 122.640625 C 456.859375 130.589844 462.835938 131.644531 468.503906 129.261719 C 468.46875 128.113281 468.378906 126.875 468.210938 125.574219 C 467.105469 117.035156 456.21875 102.863281 456.089844 102.695312 C 456.222656 102.804688 467.246094 111.984375 470.96875 123.457031 C 471.441406 124.914062 471.757812 126.214844 471.949219 127.382812 C 477.851562 123.414062 480.644531 117.222656 475.21875 108.382812 C 469.566406 99.164062 450.707031 94.496094 450.707031 94.496094 C 450.707031 94.496094 446.328125 113.421875 451.980469 122.640625 Z M 451.980469 122.640625 "/><g clip-rule="nonzero" clip-path="url(#0bb50012d3)"><path style=" stroke:none;fill-rule:nonzero;fill:#31572c;fill-opacity:1;" d="M 464.535156 97.652344 C 468.6875 99.621094 472.945312 102.234375 475.609375 105.492188 C 479.585938 99.269531 482.964844 92.605469 483.046875 92.414062 C 483.011719 92.617188 481.277344 100.03125 477.070312 107.625 C 479.246094 111.359375 479.9375 114.613281 479.542969 117.414062 C 482.328125 116.449219 484.945312 114.140625 487.160156 110.015625 C 492 101.007812 486.839844 83.375 486.839844 83.375 C 486.839844 83.375 469.492188 88.738281 464.535156 97.652344 Z M 464.535156 97.652344 "/></g><path style=" stroke:none;fill-rule:nonzero;fill:#90a955;fill-opacity:1;" d="M 166.449219 127.816406 C 171.324219 135.765625 177.300781 136.824219 182.96875 134.4375 C 182.9375 133.292969 182.847656 132.054688 182.679688 130.753906 C 181.570312 122.214844 170.6875 108.042969 170.554688 107.871094 C 170.6875 107.984375 181.710938 117.164062 185.4375 128.636719 C 185.910156 130.089844 186.226562 131.394531 186.414062 132.558594 C 192.320312 128.59375 195.113281 122.402344 189.6875 113.558594 C 184.03125 104.34375 165.175781 99.675781 165.175781 99.675781 C 165.175781 99.675781 160.792969 118.601562 166.449219 127.816406 Z M 166.449219 127.816406 "/><g clip-rule="nonzero" clip-path="url(#77140fb39b)"><path style=" stroke:none;fill-rule:nonzero;fill:#31572c;fill-opacity:1;" d="M 179 102.832031 C 183.15625 104.800781 187.414062 107.414062 190.078125 110.671875 C 194.054688 104.449219 197.433594 97.785156 197.511719 97.589844 C 197.480469 97.796875 195.746094 105.207031 191.539062 112.804688 C 193.710938 116.539062 194.402344 119.789062 194.011719 122.589844 C 196.796875 121.625 199.410156 119.316406 201.628906 115.191406 C 206.46875 106.183594 201.308594 88.554688 201.308594 88.554688 C 201.308594 88.554688 183.957031 93.917969 179 102.832031 Z M 179 102.832031 "/></g><g clip-rule="nonzero" clip-path="url(#2a89ea8c64)"><path style=" stroke:none;fill-rule:nonzero;fill:#31572c;fill-opacity:1;" d="M 282.773438 155.355469 C 286.929688 157.324219 291.1875 159.9375 293.851562 163.195312 C 297.828125 156.972656 301.207031 150.308594 301.289062 150.117188 C 301.253906 150.320312 299.519531 157.734375 295.3125 165.328125 C 297.488281 169.0625 298.179688 172.316406 297.785156 175.117188 C 300.570312 174.152344 303.183594 171.84375 305.402344 167.71875 C 310.242188 158.710938 305.082031 141.078125 305.082031 141.078125 C 305.082031 141.078125 287.734375 146.441406 282.773438 155.355469 Z M 282.773438 155.355469 "/></g><g clip-rule="nonzero" clip-path="url(#a826608532)"><path style=" stroke:none;fill-rule:nonzero;fill:#90a955;fill-opacity:1;" d="M 535.1875 137.136719 C 540.0625 145.085938 546.039062 146.144531 551.707031 143.757812 C 551.675781 142.613281 551.585938 141.375 551.417969 140.070312 C 550.308594 131.53125 539.425781 117.363281 539.292969 117.191406 C 539.425781 117.304688 550.449219 126.484375 554.175781 137.957031 C 554.648438 139.410156 554.964844 140.714844 555.152344 141.878906 C 561.058594 137.914062 563.851562 131.722656 558.425781 122.878906 C 552.769531 113.664062 533.914062 108.996094 533.914062 108.996094 C 533.914062 108.996094 529.53125 127.921875 535.1875 137.136719 Z M 535.1875 137.136719 "/></g><g clip-rule="nonzero" clip-path="url(#7b22d19dfe)"><path style=" stroke:none;fill-rule:nonzero;fill:#31572c;fill-opacity:1;" d="M 547.738281 112.152344 C 551.894531 114.121094 556.148438 116.734375 558.816406 119.992188 C 562.792969 113.769531 566.171875 107.105469 566.25 106.910156 C 566.21875 107.117188 564.484375 114.527344 560.277344 122.125 C 562.449219 125.859375 563.140625 129.109375 562.75 131.910156 C 565.535156 130.945312 568.148438 128.636719 570.363281 124.511719 C 575.207031 115.503906 570.046875 97.875 570.046875 97.875 C 570.046875 97.875 552.695312 103.238281 547.738281 112.152344 Z M 547.738281 112.152344 "/></g><path style=" stroke:none;fill-rule:nonzero;fill:#90a955;fill-opacity:1;" d="M 337.710938 84.625 C 342.589844 92.570312 348.5625 93.628906 354.230469 91.246094 C 354.199219 90.097656 354.109375 88.859375 353.941406 87.558594 C 352.835938 79.019531 341.949219 64.847656 341.820312 64.679688 C 341.949219 64.789062 352.972656 73.96875 356.699219 85.441406 C 357.171875 86.898438 357.488281 88.199219 357.679688 89.363281 C 363.582031 85.398438 366.375 79.207031 360.949219 70.367188 C 355.296875 61.148438 336.4375 56.480469 336.4375 56.480469 C 336.4375 56.480469 332.058594 75.40625 337.710938 84.625 Z M 337.710938 84.625 "/><g clip-rule="nonzero" clip-path="url(#6bb2d0ddc0)"><path style=" stroke:none;fill-rule:nonzero;fill:#31572c;fill-opacity:1;" d="M 350.261719 59.636719 C 354.417969 61.605469 358.675781 64.21875 361.339844 67.476562 C 365.316406 61.253906 368.695312 54.589844 368.777344 54.398438 C 368.742188 54.601562 367.007812 62.015625 362.800781 69.609375 C 364.976562 73.34375 365.667969 76.59375 365.273438 79.398438 C 368.058594 78.433594 370.671875 76.125 372.890625 72 C 377.730469 62.992188 372.570312 45.359375 372.570312 45.359375 C 372.570312 45.359375 355.222656 50.722656 350.261719 59.636719 Z M 350.261719 59.636719 "/></g><g clip-rule="nonzero" clip-path="url(#864bce6458)"><path style=" stroke:none;fill-rule:nonzero;fill:#90a955;fill-opacity:1;" d="M 270.222656 152 C 275.101562 159.945312 281.074219 161.003906 286.742188 158.621094 C 286.710938 157.472656 286.621094 156.234375 286.453125 154.933594 C 285.34375 146.394531 274.460938 132.222656 274.332031 132.054688 C 274.460938 132.164062 285.484375 141.34375 289.210938 152.816406 C 289.683594 154.273438 290 155.574219 290.191406 156.738281 C 296.09375 152.773438 298.886719 146.582031 293.460938 137.742188 C 287.804688 128.523438 268.949219 123.855469 268.949219 123.855469 C 268.949219 123.855469 264.570312 142.78125 270.222656 152 Z M 270.222656 152 "/></g><g clip-rule="nonzero" clip-path="url(#caa9bf8207)"><path style=" stroke:none;fill-rule:nonzero;fill:#31572c;fill-opacity:1;" d="M 282.773438 127.011719 C 286.929688 128.980469 291.1875 131.59375 293.851562 134.851562 C 297.828125 128.628906 301.207031 121.964844 301.289062 121.773438 C 301.253906 121.976562 299.519531 129.390625 295.3125 136.984375 C 297.488281 140.71875 298.179688 143.96875 297.785156 146.773438 C 300.570312 145.808594 303.183594 143.5 305.402344 139.375 C 310.242188 130.367188 305.082031 112.734375 305.082031 112.734375 C 305.082031 112.734375 287.734375 118.097656 282.773438 127.011719 Z M 282.773438 127.011719 "/></g><g clip-rule="nonzero" clip-path="url(#1b3bdcfae0)"><path style=" stroke:none;fill-rule:nonzero;fill:#90a955;fill-opacity:1;" d="M 256.601562 94.988281 C 257.960938 97.203125 259.625 97.496094 261.203125 96.832031 C 261.195312 96.511719 261.171875 96.167969 261.125 95.804688 C 260.816406 93.425781 257.78125 89.476562 257.746094 89.429688 C 257.78125 89.460938 260.855469 92.019531 261.890625 95.214844 C 262.023438 95.621094 262.113281 95.984375 262.164062 96.308594 C 263.808594 95.203125 264.589844 93.476562 263.078125 91.011719 C 261.5 88.445312 256.246094 87.144531 256.246094 87.144531 C 256.246094 87.144531 255.023438 92.417969 256.601562 94.988281 Z M 256.601562 94.988281 "/></g><g clip-rule="nonzero" clip-path="url(#d171b9f89b)"><path style=" stroke:none;fill-rule:nonzero;fill:#31572c;fill-opacity:1;" d="M 260.097656 88.023438 C 261.257812 88.570312 262.441406 89.300781 263.183594 90.207031 C 264.292969 88.476562 265.234375 86.617188 265.257812 86.5625 C 265.25 86.621094 264.765625 88.6875 263.59375 90.804688 C 264.199219 91.84375 264.390625 92.75 264.28125 93.53125 C 265.058594 93.261719 265.785156 92.617188 266.40625 91.46875 C 267.753906 88.957031 266.316406 84.042969 266.316406 84.042969 C 266.316406 84.042969 261.480469 85.539062 260.097656 88.023438 Z M 260.097656 88.023438 "/></g><g clip-rule="nonzero" clip-path="url(#4882454b41)"><path style=" stroke:none;fill-rule:nonzero;fill:#90a955;fill-opacity:1;" d="M 30.210938 50.433594 C 31.570312 52.648438 33.234375 52.941406 34.8125 52.277344 C 34.804688 51.957031 34.78125 51.613281 34.734375 51.25 C 34.425781 48.871094 31.390625 44.921875 31.355469 44.875 C 31.390625 44.90625 34.464844 47.464844 35.5 50.660156 C 35.632812 51.066406 35.722656 51.429688 35.773438 51.753906 C 37.417969 50.648438 38.199219 48.921875 36.6875 46.460938 C 35.109375 43.890625 29.855469 42.589844 29.855469 42.589844 C 29.855469 42.589844 28.632812 47.863281 30.210938 50.433594 Z M 30.210938 50.433594 "/></g><g clip-rule="nonzero" clip-path="url(#6b64b6d27f)"><path style=" stroke:none;fill-rule:nonzero;fill:#31572c;fill-opacity:1;" d="M 33.707031 43.46875 C 34.867188 44.019531 36.050781 44.746094 36.792969 45.652344 C 37.902344 43.921875 38.84375 42.0625 38.867188 42.007812 C 38.859375 42.066406 38.375 44.132812 37.203125 46.25 C 37.808594 47.289062 38 48.195312 37.890625 48.976562 C 38.667969 48.707031 39.394531 48.0625 40.011719 46.914062 C 41.363281 44.402344 39.925781 39.492188 39.925781 39.492188 C 39.925781 39.492188 35.089844 40.984375 33.707031 43.46875 Z M 33.707031 43.46875 "/></g><g clip-rule="nonzero" clip-path="url(#2b96911241)"><path style=" stroke:none;fill-rule:nonzero;fill:#90a955;fill-opacity:1;" d="M 545.347656 18.191406 C 546.707031 20.40625 548.371094 20.703125 549.949219 20.035156 C 549.941406 19.71875 549.917969 19.371094 549.871094 19.007812 C 549.5625 16.628906 546.527344 12.679688 546.492188 12.632812 C 546.527344 12.664062 549.601562 15.222656 550.636719 18.417969 C 550.769531 18.824219 550.859375 19.1875 550.910156 19.511719 C 552.554688 18.40625 553.335938 16.683594 551.824219 14.21875 C 550.246094 11.648438 544.992188 10.347656 544.992188 10.347656 C 544.992188 10.347656 543.769531 15.625 545.347656 18.191406 Z M 545.347656 18.191406 "/></g><g clip-rule="nonzero" clip-path="url(#7838bb8221)"><path style=" stroke:none;fill-rule:nonzero;fill:#31572c;fill-opacity:1;" d="M 548.84375 11.226562 C 550.003906 11.777344 551.1875 12.503906 551.929688 13.414062 C 553.039062 11.679688 553.980469 9.820312 554.003906 9.769531 C 553.996094 9.824219 553.511719 11.890625 552.339844 14.007812 C 552.945312 15.046875 553.136719 15.953125 553.027344 16.734375 C 553.804688 16.464844 554.53125 15.824219 555.152344 14.671875 C 556.5 12.164062 555.0625 7.25 555.0625 7.25 C 555.0625 7.25 550.226562 8.742188 548.84375 11.226562 Z M 548.84375 11.226562 "/></g><g clip-rule="nonzero" clip-path="url(#ac2a82e7f5)"><path style=" stroke:none;fill-rule:nonzero;fill:#90a955;fill-opacity:1;" d="M 509.507812 83.082031 C 510.867188 85.296875 512.535156 85.589844 514.113281 84.925781 C 514.105469 84.605469 514.078125 84.261719 514.03125 83.898438 C 513.722656 81.519531 510.691406 77.570312 510.652344 77.523438 C 510.691406 77.554688 513.761719 80.113281 514.800781 83.308594 C 514.933594 83.714844 515.019531 84.078125 515.074219 84.402344 C 516.71875 83.296875 517.496094 81.570312 515.984375 79.109375 C 514.410156 76.539062 509.15625 75.238281 509.15625 75.238281 C 509.15625 75.238281 507.933594 80.511719 509.507812 83.082031 Z M 509.507812 83.082031 "/></g><g clip-rule="nonzero" clip-path="url(#0fd3e01712)"><path style=" stroke:none;fill-rule:nonzero;fill:#31572c;fill-opacity:1;" d="M 513.007812 76.117188 C 514.164062 76.667969 515.351562 77.394531 516.09375 78.300781 C 517.203125 76.570312 518.144531 74.710938 518.167969 74.65625 C 518.15625 74.714844 517.675781 76.78125 516.5 78.898438 C 517.109375 79.9375 517.300781 80.84375 517.191406 81.625 C 517.964844 81.355469 518.695312 80.710938 519.3125 79.5625 C 520.664062 77.050781 519.222656 72.140625 519.222656 72.140625 C 519.222656 72.140625 514.390625 73.632812 513.007812 76.117188 Z M 513.007812 76.117188 "/></g><path style=" stroke:none;fill-rule:nonzero;fill:#90a955;fill-opacity:1;" d="M 444.464844 49.375 C 446.542969 52.765625 449.089844 53.214844 451.507812 52.199219 C 451.492188 51.707031 451.457031 51.179688 451.382812 50.625 C 450.910156 46.988281 446.273438 40.945312 446.214844 40.875 C 446.273438 40.921875 450.972656 44.835938 452.558594 49.722656 C 452.761719 50.34375 452.894531 50.898438 452.976562 51.398438 C 455.492188 49.707031 456.683594 47.066406 454.371094 43.296875 C 451.960938 39.371094 443.921875 37.382812 443.921875 37.382812 C 443.921875 37.382812 442.054688 45.449219 444.464844 49.375 Z M 444.464844 49.375 "/><g clip-rule="nonzero" clip-path="url(#82fb34dc41)"><path style=" stroke:none;fill-rule:nonzero;fill:#31572c;fill-opacity:1;" d="M 449.816406 38.726562 C 451.585938 39.566406 453.402344 40.679688 454.535156 42.066406 C 456.230469 39.414062 457.671875 36.574219 457.707031 36.492188 C 457.691406 36.578125 456.953125 39.738281 455.160156 42.976562 C 456.085938 44.566406 456.382812 45.953125 456.214844 47.148438 C 457.402344 46.738281 458.515625 45.753906 459.460938 43.996094 C 461.523438 40.15625 459.324219 32.640625 459.324219 32.640625 C 459.324219 32.640625 451.929688 34.925781 449.816406 38.726562 Z M 449.816406 38.726562 "/></g><g clip-rule="nonzero" clip-path="url(#cebe3ec346)"><path style=" stroke:none;fill-rule:nonzero;fill:#90a955;fill-opacity:1;" d="M 213.863281 48.546875 C 214.902344 50.238281 216.175781 50.464844 217.386719 49.957031 C 217.378906 49.710938 217.359375 49.449219 217.324219 49.171875 C 217.085938 47.351562 214.769531 44.332031 214.738281 44.296875 C 214.769531 44.320312 217.117188 46.273438 217.910156 48.71875 C 218.011719 49.03125 218.078125 49.308594 218.121094 49.554688 C 219.378906 48.710938 219.972656 47.390625 218.816406 45.507812 C 217.613281 43.542969 213.59375 42.546875 213.59375 42.546875 C 213.59375 42.546875 212.660156 46.582031 213.863281 48.546875 Z M 213.863281 48.546875 "/></g><g clip-rule="nonzero" clip-path="url(#55846a2bb1)"><path style=" stroke:none;fill-rule:nonzero;fill:#31572c;fill-opacity:1;" d="M 216.539062 43.222656 C 217.425781 43.640625 218.332031 44.195312 218.898438 44.890625 C 219.746094 43.566406 220.46875 42.144531 220.484375 42.105469 C 220.476562 42.148438 220.109375 43.726562 219.210938 45.347656 C 219.675781 46.140625 219.824219 46.835938 219.738281 47.433594 C 220.332031 47.226562 220.890625 46.734375 221.363281 45.855469 C 222.394531 43.933594 221.292969 40.179688 221.292969 40.179688 C 221.292969 40.179688 217.597656 41.320312 216.539062 43.222656 Z M 216.539062 43.222656 "/></g><path style=" stroke:none;fill-rule:nonzero;fill:#90a955;fill-opacity:1;" d="M 67.082031 128.445312 C 69.160156 131.832031 71.707031 132.285156 74.121094 131.265625 C 74.109375 130.777344 74.070312 130.25 74 129.695312 C 73.527344 126.054688 68.886719 120.015625 68.832031 119.945312 C 68.886719 119.992188 73.585938 123.902344 75.171875 128.792969 C 75.375 129.414062 75.511719 129.96875 75.589844 130.464844 C 78.105469 128.777344 79.296875 126.136719 76.984375 122.367188 C 74.574219 118.441406 66.539062 116.449219 66.539062 116.449219 C 66.539062 116.449219 64.671875 124.515625 67.082031 128.445312 Z M 67.082031 128.445312 "/><g clip-rule="nonzero" clip-path="url(#f51ce3c859)"><path style=" stroke:none;fill-rule:nonzero;fill:#31572c;fill-opacity:1;" d="M 72.429688 117.796875 C 74.203125 118.632812 76.015625 119.746094 77.152344 121.136719 C 78.847656 118.484375 80.289062 115.644531 80.320312 115.5625 C 80.308594 115.648438 79.566406 118.808594 77.773438 122.046875 C 78.703125 123.636719 78.996094 125.023438 78.828125 126.21875 C 80.015625 125.804688 81.128906 124.820312 82.074219 123.0625 C 84.136719 119.222656 81.9375 111.710938 81.9375 111.710938 C 81.9375 111.710938 74.542969 113.996094 72.429688 117.796875 Z M 72.429688 117.796875 "/></g><path style=" stroke:none;fill-rule:nonzero;fill:#90a955;fill-opacity:1;" d="M 391.78125 129.457031 C 393.859375 132.847656 396.40625 133.296875 398.820312 132.28125 C 398.808594 131.792969 398.769531 131.265625 398.699219 130.710938 C 398.226562 127.070312 393.585938 121.03125 393.53125 120.957031 C 393.585938 121.003906 398.285156 124.917969 399.875 129.808594 C 400.074219 130.429688 400.210938 130.984375 400.289062 131.480469 C 402.808594 129.789062 403.996094 127.152344 401.683594 123.382812 C 399.273438 119.453125 391.238281 117.464844 391.238281 117.464844 C 391.238281 117.464844 389.371094 125.53125 391.78125 129.457031 Z M 391.78125 129.457031 "/><g clip-rule="nonzero" clip-path="url(#bbf319e630)"><path style=" stroke:none;fill-rule:nonzero;fill:#31572c;fill-opacity:1;" d="M 397.128906 118.808594 C 398.902344 119.648438 400.714844 120.761719 401.851562 122.148438 C 403.546875 119.5 404.988281 116.65625 405.019531 116.574219 C 405.007812 116.664062 404.265625 119.820312 402.472656 123.058594 C 403.402344 124.652344 403.695312 126.035156 403.527344 127.230469 C 404.714844 126.820312 405.828125 125.835938 406.773438 124.078125 C 408.835938 120.238281 406.636719 112.722656 406.636719 112.722656 C 406.636719 112.722656 399.242188 115.007812 397.128906 118.808594 Z M 397.128906 118.808594 "/></g></g></svg>