<svg width="454" height="383" viewBox="0 0 454 383" fill="none" xmlns="http://www.w3.org/2000/svg">
<g clip-path="url(#clip0_354_118)">
<path d="M298.732 214.435C289.154 220.436 272.091 227.955 254.654 220.228L243.382 215.232L265.97 188.778C247.945 168.015 237.973 140.978 238.001 112.947C238.028 84.9156 248.053 57.9008 266.118 37.1757C284.184 16.4506 308.993 3.50271 335.704 0.859305C362.415 -1.7841 389.11 6.06672 410.579 22.8794C432.048 39.692 446.75 64.2597 451.814 91.7872C456.879 119.315 451.943 147.826 437.971 171.756C423.998 195.687 401.991 213.318 376.246 221.209C350.501 229.101 322.864 226.685 298.732 214.435ZM255.454 112.884C255.404 125.806 257.914 138.599 262.826 150.458C267.738 162.317 274.946 172.986 283.996 181.794L290.227 187.911L276.013 204.557C283.417 202.987 289.865 198.803 293.135 196.373L297.621 193.037L302.446 195.807C315.784 203.437 330.746 207.435 345.953 207.434C395.854 207.434 436.452 165.019 436.452 112.884C436.452 60.7489 395.854 18.3338 345.953 18.3338C296.051 18.3338 255.454 60.7489 255.454 112.884Z" fill="#3F3D56"/>
<path d="M246.679 112.884C246.679 55.6025 291.125 9.16687 345.953 9.16687C400.78 9.16687 445.226 55.6025 445.226 112.884C445.226 170.165 400.78 216.601 345.953 216.601C329.266 216.626 312.845 212.237 298.221 203.842C291.359 208.943 274.618 219.118 258.08 211.789L277.987 188.474C268.091 178.787 260.206 167.079 254.82 154.076C249.435 141.072 246.664 127.052 246.679 112.884Z" fill="#ECF39E"/>
<path opacity="0.1" d="M428.314 113.109C428.314 58.9172 388.531 14.441 337.815 9.79955C340.707 9.53491 343.632 9.39172 346.589 9.39172C401.416 9.39172 445.862 55.8273 445.862 113.109C445.862 170.39 401.416 216.826 346.589 216.826C343.636 216.826 340.716 216.68 337.829 216.416C388.539 211.768 428.314 167.295 428.314 113.109Z" fill="black"/>
<path d="M117.188 358.52C92.3824 358.532 68.3268 349.636 49.0524 333.323C29.7779 317.01 16.4559 294.271 11.319 268.918C6.18209 243.564 9.54244 217.136 20.8369 194.062C32.1313 170.989 50.6735 152.673 73.3559 142.183C96.0383 131.693 121.483 129.667 145.425 136.445C169.367 143.223 190.351 158.392 204.862 179.411C219.372 200.43 226.527 226.021 225.127 251.895C223.727 277.769 213.856 302.354 197.171 321.53L219.758 347.984L208.487 352.98C191.049 360.707 173.986 353.188 164.408 347.187C149.689 354.642 133.545 358.516 117.188 358.52ZM117.188 151.086C67.2864 151.086 26.6885 193.501 26.6885 245.636C26.6885 297.771 67.2864 340.186 117.188 340.186C132.394 340.187 147.356 336.189 160.694 328.559L165.519 325.789L170.006 329.125C173.275 331.555 179.724 335.74 187.128 337.309L172.914 320.663L179.144 314.546C188.195 305.738 195.402 295.069 200.314 283.21C205.227 271.351 207.737 258.558 207.687 245.636C207.687 193.501 167.089 151.086 117.188 151.086Z" fill="#3F3D56"/>
<path d="M216.461 245.636C216.461 188.354 172.015 141.919 117.188 141.919C62.3607 141.919 17.9146 188.354 17.9146 245.636C17.9146 302.917 62.3607 349.353 117.188 349.353C133.874 349.378 150.295 344.989 164.919 336.594C171.782 341.695 188.523 351.87 205.061 344.541L185.153 321.226C195.049 311.539 202.935 299.831 208.32 286.827C213.706 273.824 216.477 259.804 216.461 245.636Z" fill="#ECF39E"/>
<path opacity="0.1" d="M35.4629 245.112C35.4629 190.92 75.2456 146.444 125.962 141.803C123.07 141.538 120.145 141.395 117.188 141.395C62.3607 141.395 17.9146 187.831 17.9146 245.112C17.9146 302.393 62.3607 348.829 117.188 348.829C120.141 348.829 123.061 348.684 125.948 348.42C75.2384 343.771 35.4629 299.298 35.4629 245.112Z" fill="black"/>
<path d="M369.258 79.9331C362.762 68.4668 349.912 67.9324 349.912 67.9324C349.912 67.9324 337.39 66.2594 329.357 83.7227C321.87 100 311.537 115.716 327.694 119.526L330.612 110.036L332.419 120.233C334.72 120.406 337.028 120.447 339.332 120.356C356.635 119.773 373.113 120.527 372.583 114.04C371.877 105.417 375.507 90.9659 369.258 79.9331Z" fill="#2F2E41"/>
<path d="M326.771 180.349C326.581 181.61 326.304 182.855 325.943 184.075C325.536 185.269 324.909 186.374 324.537 187.58C323.353 191.425 324.995 195.713 327.618 198.681C329.892 201.245 332.828 203.066 336.071 203.926C338.459 204.46 340.895 204.727 343.336 204.723C350.089 204.963 357.014 205.177 363.413 202.91C365.434 202.176 367.386 201.249 369.245 200.141C369.832 199.849 370.349 199.424 370.759 198.896C371.187 198.123 371.378 197.232 371.305 196.342C371.291 193.351 370.71 190.376 370.848 187.389C370.924 185.734 371.221 184.081 371.075 182.432C370.873 180.558 370.122 178.796 368.924 177.386C367.727 175.976 366.141 174.987 364.385 174.554C362.57 174.147 360.688 174.369 358.84 174.554C354.043 175.036 349.226 175.261 344.408 175.228C339.484 175.196 334.591 174.41 329.693 174.328C328.244 174.304 328.273 174.771 327.812 176.236C327.387 177.584 327.04 178.957 326.771 180.349Z" fill="#2F2E41"/>
<path d="M340.743 106.505C340.507 107.799 340.251 109.14 339.507 110.204C338.65 111.428 337.253 112.127 336.332 113.298C334.945 115.061 334.865 117.541 334.86 119.823C334.854 121.925 334.895 124.168 336.017 125.913C336.816 126.997 337.807 127.91 338.937 128.601C343.144 131.564 347.692 134.58 352.765 134.678C354.867 134.718 357.121 134.151 358.504 132.497C359.101 131.72 359.571 130.844 359.894 129.907C361.191 126.566 361.977 123.033 362.224 119.437C362.411 117.746 362.26 116.033 361.78 114.407C361.164 112.612 359.918 111.134 359.094 109.432C358.12 107.408 357.764 105.121 358.074 102.879C358.115 102.721 358.102 102.553 358.038 102.404C357.97 102.324 357.886 102.262 357.791 102.221C357.696 102.181 357.594 102.165 357.492 102.173L347.433 101.416C346.496 101.368 345.563 101.256 344.64 101.082C344.097 100.967 342.665 100.162 342.148 100.376C341.191 100.773 340.939 105.431 340.743 106.505Z" fill="#A0616A"/>
<path opacity="0.1" d="M340.743 106.833C340.507 108.127 340.251 109.469 339.507 110.532C338.65 111.756 337.253 112.455 336.332 113.626C334.945 115.389 334.865 117.87 334.86 120.151C334.854 122.254 334.895 124.496 336.017 126.241C336.816 127.325 337.807 128.238 338.937 128.93C343.144 131.892 347.692 134.908 352.765 135.006C354.867 135.046 357.121 134.479 358.504 132.825C359.101 132.048 359.571 131.173 359.894 130.235C361.191 126.894 361.977 123.361 362.224 119.765C362.411 118.074 362.26 116.361 361.78 114.735C361.164 112.94 359.918 111.462 359.094 109.76C358.12 107.736 357.764 105.449 358.074 103.207C358.115 103.049 358.102 102.881 358.038 102.732C357.97 102.652 357.886 102.59 357.791 102.55C357.696 102.51 357.594 102.493 357.492 102.501L347.433 101.744C346.496 101.696 345.563 101.584 344.64 101.41C344.097 101.295 342.665 100.491 342.148 100.705C341.191 101.101 340.939 105.759 340.743 106.833Z" fill="black"/>
<path d="M350.364 107.914C358.515 107.914 365.122 101.01 365.122 92.4945C365.122 83.9786 358.515 77.0751 350.364 77.0751C342.213 77.0751 335.605 83.9786 335.605 92.4945C335.605 101.01 342.213 107.914 350.364 107.914Z" fill="#A0616A"/>
<path d="M342.813 127.03C343.542 127.912 344.421 128.646 345.406 129.194C346.432 129.637 347.534 129.857 348.644 129.839C351.305 129.917 354.189 129.407 356.039 127.409C358.425 124.833 358.346 120.679 360.216 117.674C360.367 117.401 360.573 117.166 360.819 116.985C361.133 116.807 361.487 116.722 361.844 116.739C364.206 116.716 366.263 118.316 368.119 119.841C368.993 120.469 369.743 121.268 370.328 122.192C370.695 122.94 370.947 123.745 371.073 124.575C371.995 129.274 372.293 134.079 372.589 138.866C372.753 141.509 372.916 144.156 372.904 146.805C372.864 155.534 370.922 164.116 368.991 172.608C368.742 173.703 368.402 174.926 367.449 175.45C367.025 175.649 366.569 175.766 366.104 175.793C360.573 176.472 355.031 177.151 349.463 177.241C347.29 177.276 345.118 177.221 342.946 177.076C342.573 177.071 342.202 177.003 341.849 176.876C341.369 176.635 340.957 176.27 340.652 175.814C337.64 171.849 337.462 166.367 337.482 161.304C337.529 148.928 337.952 136.561 338.751 124.204C338.817 123.185 338.832 121.946 338.128 121.144C339.498 123.264 341.068 125.236 342.813 127.03Z" fill="white"/>
<path d="M339.687 109.226C339.188 110.169 335.513 112.51 334.804 113.291C330.84 117.657 323.605 117.493 319.979 122.168C318.704 123.813 318.041 125.88 317.554 127.935C316.864 130.842 316.496 134.011 317.651 136.752C318.762 139.389 321.101 141.212 322.69 143.567C324.433 146.154 325.217 149.294 325.969 152.358C326.523 154.621 327.083 156.94 326.867 159.265C326.621 161.908 325.397 164.328 324.674 166.875C323.951 169.421 323.826 172.453 325.498 174.454C326.725 175.924 328.651 176.507 330.492 176.835C332.85 177.205 335.228 177.421 337.612 177.482C339.716 177.579 342.036 177.598 343.654 176.189C344.93 175.076 345.485 173.272 345.557 171.537C345.629 169.802 345.283 168.082 345.067 166.361C344.842 164.576 344.756 162.775 344.684 160.977C344.36 152.907 344.316 144.831 344.552 136.751C344.67 135.071 344.591 133.383 344.317 131.724C343.866 129.562 342.747 127.63 341.814 125.644C339.95 121.904 339.105 117.699 339.373 113.491C339.655 109.166 341.461 105.872 339.687 109.226Z" fill="white"/>
<path d="M360.412 109.554C361.171 110.37 363.751 110.638 364.717 111.163C365.626 111.602 366.574 111.945 367.547 112.187C371.07 113.249 374.421 114.856 377.489 116.954C378.126 117.344 378.69 117.852 379.151 118.454C379.638 119.281 379.951 120.206 380.071 121.168C380.544 123.615 381.019 126.092 380.913 128.587C380.8 131.234 380.037 133.799 379.279 136.328L376.45 145.78C374.337 152.834 372.212 159.959 371.617 167.325C371.289 171.407 371.435 175.516 372.053 179.561C372.111 179.758 372.128 179.966 372.104 180.17C372.079 180.375 372.013 180.571 371.91 180.747C371.724 180.939 371.478 181.057 371.217 181.08C369.851 181.303 368.53 180.575 367.292 179.932C363.51 177.965 359.474 176.585 355.311 175.836C356.938 173.38 358.193 170.676 359.032 167.821C359.509 166.008 359.885 164.168 360.157 162.309L361.473 154.355C362.009 151.448 362.386 148.511 362.602 145.559C362.702 144.451 362.64 143.334 362.419 142.245C362.116 141.21 361.713 140.208 361.217 139.257C359.047 134.543 358.03 129.163 358.883 124.008C359.257 121.752 359.983 119.493 359.68 117.226C359.389 115.046 359.691 113.352 359.156 111.195C356.958 102.337 358.984 108.02 360.412 109.554Z" fill="white"/>
<path d="M319.942 129.623C318.953 131.767 317.3 133.593 316.737 135.9C316.518 136.978 316.424 138.079 316.457 139.181C316.36 140.84 316.517 142.506 316.923 144.114C317.237 145.131 317.748 146.069 318.116 147.066C318.63 148.459 318.858 149.949 318.788 151.44C318.688 153.505 318.017 155.51 317.964 157.577C317.882 160.828 319.321 163.884 320.725 166.787C321.079 165.872 321.619 165.049 322.309 164.376C322.998 163.702 323.821 163.194 324.718 162.888C325.615 162.581 326.565 162.482 327.503 162.599C328.44 162.716 329.342 163.046 330.144 163.565C330.466 163.152 330.619 162.624 330.569 162.094C330.673 158.322 330.773 154.551 330.869 150.779C331.021 144.945 331.166 139.034 329.882 133.355C329.302 130.791 328.399 128.237 326.745 126.248C325.874 125.2 322.917 122.442 321.488 123.615C320.845 124.143 320.995 125.579 320.893 126.306C320.739 127.456 320.418 128.574 319.942 129.623Z" fill="white"/>
<path d="M381.202 123.443C381.6 124.99 381.77 126.59 381.707 128.19C381.726 131.45 381.685 134.71 381.583 137.97C381.598 139.642 381.394 141.308 380.975 142.921C380.655 143.971 380.162 144.955 379.833 146C378.844 149.134 379.384 152.534 379.469 155.832C379.529 156.9 379.442 157.971 379.21 159.013C378.688 161.058 377.286 162.71 376.308 164.563C375.379 166.323 374.818 168.296 373.708 169.937C372.598 171.579 370.677 172.88 368.814 172.376C367.403 171.994 366.4 170.689 365.707 169.349C364.194 166.404 363.676 163.012 364.238 159.721C364.934 155.718 367.185 152.166 367.997 148.186C369.112 142.721 367.418 137.081 367.468 131.493C367.445 130.618 367.559 129.744 367.805 128.906C368.23 127.63 369.145 126.61 369.99 125.587C371.046 124.307 372.026 122.963 372.927 121.56C373.532 120.617 374.353 118.194 375.425 117.992C377.819 117.542 380.608 121.511 381.202 123.443Z" fill="white"/>
<path d="M307.52 177.918C306.196 177.571 304.832 177.419 303.467 177.468C302.034 177.551 300.634 177.952 299.36 178.643C298.086 179.335 296.968 180.303 296.08 181.481C295.192 182.659 294.554 184.022 294.208 185.477C293.863 186.933 293.819 188.449 294.078 189.925C294.408 191.523 294.948 193.065 295.683 194.509C296.758 196.787 298.047 199.061 300.036 200.521C301.235 201.324 302.526 201.966 303.878 202.431L314.356 206.555C315.898 207.162 317.44 207.769 318.996 208.331C326.817 211.156 334.971 212.849 343.231 213.365C345.745 213.611 348.279 213.477 350.756 212.967C351.355 212.885 351.903 212.575 352.297 212.097C352.497 211.733 352.614 211.327 352.641 210.909L353.286 206.193C353.43 205.536 353.411 204.852 353.231 204.205C352.936 203.412 352.195 202.914 351.49 202.49C344.601 198.356 336.557 196.076 330.759 190.402C329.394 189.067 328.252 186.95 326.593 186.043C324.712 185.014 322.498 184.427 320.554 183.478C316.304 181.406 312.125 179.024 307.52 177.918Z" fill="#2F2E41"/>
<path opacity="0.1" d="M317.981 184.276C321.684 185.488 337.321 193.889 340.001 196.821C339.642 196.957 327.453 189.82 327.087 189.705C323.734 188.743 320.451 187.534 317.262 186.088C316.627 185.781 313.136 184.338 313.294 183.501C313.472 182.556 317.323 184.061 317.981 184.276Z" fill="black"/>
<path d="M364.186 215.811C364.396 215.827 364.605 215.763 364.773 215.63C364.847 215.531 364.901 215.418 364.933 215.297C364.964 215.175 364.972 215.049 364.957 214.924L364.939 208.5C363.171 207.619 361.193 207.337 359.251 207.066L350.192 205.801C350.401 205.83 348.776 209.877 349.025 210.418C349.464 211.37 352.819 212.214 353.766 212.664C357.058 214.227 360.478 215.945 364.186 215.811Z" fill="#A0616A"/>
<path d="M335.763 208.477C334.053 208.762 332.144 209.014 331.036 210.405C329.632 212.169 330.23 214.798 330.9 216.984C330.941 217.266 331.035 217.536 331.178 217.78C331.321 218.023 331.509 218.234 331.731 218.4C331.953 218.566 332.204 218.683 332.471 218.746C332.737 218.808 333.013 218.814 333.282 218.764C334.841 218.867 336.501 218.948 337.864 218.148C338.482 217.722 339.076 217.261 339.645 216.766C340.65 216.067 341.754 215.539 342.918 215.202C345.056 214.5 347.258 214.026 349.488 213.788C350.367 213.746 351.237 213.586 352.076 213.311C352.495 213.17 352.878 212.93 353.194 212.609C353.51 212.288 353.751 211.896 353.899 211.462C354.215 210.295 353.565 209.104 352.942 208.08C352.224 206.739 351.293 205.536 350.187 204.523C348.499 203.153 347.664 204.205 345.964 205.081C342.746 206.741 339.307 207.885 335.763 208.477Z" fill="#A0616A"/>
<path d="M331.294 210.087L320.433 206.733C319.131 206.259 317.769 205.984 316.392 205.915C315.702 205.886 315.014 206.01 314.374 206.281C313.734 206.551 313.156 206.961 312.68 207.483C311.838 208.516 311.597 209.927 311.387 211.266L310.938 214.13C310.638 215.574 310.554 217.057 310.686 218.528C310.759 219.263 310.991 219.972 311.364 220.6C311.738 221.228 312.244 221.758 312.844 222.151C314.347 223.008 316.189 222.589 317.866 222.231C321.254 221.507 324.7 221.121 328.158 221.078C329.458 221.062 330.821 221.079 331.97 220.443C332.637 220.03 333.197 219.453 333.602 218.762C334.007 218.072 334.244 217.288 334.293 216.48C334.507 214.034 333.726 210.838 331.294 210.087Z" fill="#2F2E41"/>
<path d="M368.455 207.165C369.863 206.907 371.105 206.071 372.454 205.577C374.353 204.883 376.411 204.883 378.423 204.891C379.163 204.82 379.906 204.975 380.563 205.338C381.449 205.955 381.676 207.188 381.827 208.289L382.736 214.933C382.979 216.172 383.004 217.447 382.81 218.696C382.543 219.927 381.74 221.114 380.571 221.432C379.151 221.817 377.758 220.87 376.418 220.247C373.066 218.691 369.17 219.089 365.676 217.926C365.342 217.856 365.026 217.712 364.748 217.505C364.471 217.298 364.239 217.032 364.068 216.724C363.949 216.355 363.906 215.964 363.943 215.576C364.003 213.441 363.572 210.525 364.187 208.484C364.741 206.649 366.883 207.165 368.455 207.165Z" fill="#2F2E41"/>
<path d="M391.438 175.244C393.608 174.676 395.857 174.515 398.081 174.77C399.857 174.975 401.687 175.491 402.984 176.775C404.562 178.338 405.07 180.756 405.112 183.028C405.181 187.553 403.745 191.962 401.048 195.503C400.389 196.399 399.606 197.187 398.724 197.84C397.773 198.462 396.76 198.972 395.702 199.362L372.236 209.032C366.062 211.576 359.867 214.127 353.428 215.804C353.252 215.893 353.061 215.944 352.866 215.955C352.67 215.965 352.475 215.935 352.291 215.865C352.108 215.795 351.939 215.688 351.796 215.549C351.652 215.411 351.537 215.243 351.456 215.057C349.4 211.989 347.675 208.693 346.313 205.228C346.248 205.146 346.204 205.049 346.183 204.944C346.162 204.84 346.165 204.732 346.193 204.63C346.22 204.527 346.271 204.433 346.341 204.356C346.41 204.278 346.497 204.219 346.593 204.184L363.191 194.221C364.408 193.557 365.542 192.741 366.569 191.789C367.286 191.063 367.873 190.208 368.303 189.266C368.647 188.515 368.679 186.744 369.119 186.189C369.549 185.645 371.021 185.602 371.701 185.388C372.659 185.082 373.598 184.711 374.511 184.278C378.224 182.543 381.53 180.022 385.089 177.99C387.086 176.797 389.219 175.875 391.438 175.244Z" fill="#2F2E41"/>
<path opacity="0.1" d="M382.028 182.685C379.177 184.922 375.485 186.979 372.659 189.276C371.694 190.059 355.615 199.504 355.388 200.758C358.024 201.222 374.82 188.947 377.223 187.722C379.626 186.497 381.756 184.769 383.867 183.055C384.405 182.618 386.685 181.304 385.141 180.816C384.271 180.541 382.671 182.238 382.028 182.685Z" fill="black"/>
<path d="M362.408 109.771H337.377C336.36 109.771 335.385 110.193 334.666 110.944C333.946 111.695 333.542 112.714 333.542 113.777V115.244H333.271V118.525H333.542V120.821H333.271V122.79H333.542V146.997C333.542 148.059 333.946 149.078 334.666 149.829C335.385 150.581 336.36 151.003 337.377 151.003H362.408C363.425 151.003 364.4 150.581 365.119 149.829C365.838 149.078 366.242 148.059 366.242 146.997V113.777C366.242 112.714 365.838 111.695 365.119 110.944C364.4 110.193 363.425 109.771 362.408 109.771Z" fill="#D0CDE1"/>
<path d="M366.386 78.828L353.691 71.88L336.158 74.7224L332.531 91.4602L341.561 91.0969L344.083 84.948V90.996L348.249 90.8286L350.668 81.0383L352.179 91.4602L366.991 91.1441L366.386 78.828Z" fill="#2F2E41"/>
<path d="M323.264 173.076C323.838 174.096 324.654 174.945 325.633 175.539C326.276 175.846 326.977 175.995 327.683 175.975C328.389 175.956 329.081 175.767 329.707 175.425C330.957 174.725 331.98 173.654 332.647 172.346C334.027 169.8 334.312 166.754 334.14 163.835C333.968 160.915 333.371 158.04 333.107 155.127C332.915 153.01 332.9 150.881 332.884 148.754C332.837 148.307 332.926 147.856 333.141 147.465C333.509 147.082 333.987 146.833 334.502 146.755C337.286 145.891 339.135 143.164 340.46 140.463C341.345 138.66 342.114 136.688 341.943 134.67C341.773 132.651 340.384 130.617 338.454 130.411C336.863 130.242 335.394 131.297 334.247 132.461C331.352 135.415 329.491 139.299 328.964 143.491C328.712 145.543 328.784 147.652 328.25 149.644C327.109 153.899 323.539 156.508 321.76 160.336C319.8 164.555 320.882 169.344 323.264 173.076Z" fill="#A0616A"/>
<path d="M375.797 156.822C375.391 157.808 374.799 158.7 374.058 159.444C373.317 160.188 372.44 160.77 371.481 161.154C370.287 161.655 368.971 161.739 367.729 161.394C367.112 161.216 366.544 160.891 366.067 160.446C365.59 160 365.218 159.446 364.98 158.826C364.79 158.201 364.686 157.552 364.67 156.897C364.492 154.028 364.561 151.071 365.558 148.391C365.943 147.358 366.462 146.377 366.766 145.315C367.064 144.088 367.217 142.827 367.22 141.56L367.548 133.732C367.602 133.163 367.565 132.59 367.437 132.034C367.11 130.902 366.096 130.165 365.167 129.49C362.921 127.858 360.702 125.955 359.614 123.333C359.24 122.544 359.107 121.654 359.231 120.783C359.537 119.228 361.039 118.222 362.523 117.883C363.494 117.661 364.498 117.647 365.475 117.841C366.451 118.036 367.38 118.435 368.205 119.014C369.03 119.593 369.734 120.341 370.275 121.212C370.816 122.084 371.183 123.06 371.353 124.084C371.499 124.967 371.497 125.869 371.583 126.762C371.766 128.654 372.341 130.478 372.7 132.343C373.587 136.936 373.127 141.684 374.004 146.276C374.736 150.115 377.499 152.621 375.797 156.822Z" fill="#A0616A"/>
<path d="M350.228 127.383C351.962 127.383 353.368 125.914 353.368 124.102C353.368 122.29 351.962 120.821 350.228 120.821C348.493 120.821 347.087 122.29 347.087 124.102C347.087 125.914 348.493 127.383 350.228 127.383Z" fill="#ECF39E"/>
<path d="M9.26406 242.012C14.3799 242.012 18.5271 237.679 18.5271 232.334C18.5271 226.989 14.3799 222.656 9.26406 222.656C4.1482 222.656 0.000976562 226.989 0.000976562 232.334C0.000976562 237.679 4.1482 242.012 9.26406 242.012Z" fill="#2F2E41"/>
<path d="M42.8412 261.064L38.1755 256.326L28.8066 259.366L29.7065 270.7L48.9702 269.765L43.0523 261.364L42.8412 261.064Z" fill="#FBBEBE"/>
<path d="M32.637 260.967C40.9079 260.967 47.6129 253.962 47.6129 245.32C47.6129 236.679 40.9079 229.674 32.637 229.674C24.3661 229.674 17.6611 236.679 17.6611 245.32C17.6611 253.962 24.3661 260.967 32.637 260.967Z" fill="#FBBEBE"/>
<path d="M125.608 281.146C125.608 281.146 144.006 314.179 148.384 319.138C150.467 321.579 152.685 323.888 155.028 326.056C155.028 326.056 152.969 333.189 149.691 332.934C147.822 332.817 145.99 332.345 144.283 331.542C144.283 331.542 142.82 327.579 140.267 325.841C137.715 324.103 116.863 302.671 117.35 295.821C117.838 288.97 125.608 281.146 125.608 281.146Z" fill="#2F2E41"/>
<path d="M60.0864 328.285C60.0864 328.285 79.703 344.193 106.363 329.245L108.66 327.479C108.66 327.479 104.783 336.592 104.423 339.062C104.006 341.927 93.9116 358.707 92.2643 359.511C90.6171 360.315 90.254 361.057 90.254 361.057L97.2446 369.096L99.8292 367.108C99.8292 367.108 109.907 352.19 112.855 349.462C115.803 346.733 129.847 318.59 129.847 318.59C129.847 318.59 135.216 307.986 121.816 307.188C108.415 306.391 102.249 310.207 102.249 310.207L78.4662 314.154L60.0864 328.285Z" fill="#2F2E41"/>
<path d="M155.256 324.493L165.178 331.666C165.178 331.666 177.836 335.809 170.039 338.566C162.241 341.324 141.694 342.321 141.227 338.517C140.761 334.713 142.038 328.725 143.063 329.052C144.088 329.379 151.203 331.31 155.256 324.493Z" fill="#2F2E41"/>
<path d="M100.707 364.644L102.544 375.18C102.544 375.18 107.766 385.614 101.496 382.377C95.2261 379.14 82.3086 366.842 84.2161 364.264C86.1236 361.686 90.3336 358.89 90.7612 359.73C91.1887 360.57 94.3531 366.195 100.707 364.644Z" fill="#2F2E41"/>
<path d="M81.788 317.613C81.788 317.613 68.4532 333.878 60.3575 329.927C52.2617 325.976 19.1403 280.212 22.9222 271.753C26.7041 263.295 27.9721 265.096 27.9721 265.096L45.0738 266.748L40.1532 258.505C40.1532 258.505 42.4506 256.739 44.6399 259.218C46.8292 261.698 55.6187 267.891 58.6807 276.637C61.7427 285.384 70.7323 284.948 70.7323 284.948L81.788 317.613Z" fill="white"/>
<path d="M135.638 284.073L112.523 309.708L91.8159 271.512L111.501 246.664L135.638 284.073Z" fill="#3F3D56"/>
<path d="M133.894 283.795L113.016 306.323L94.0977 271.608L111.448 248.787L133.894 283.795Z" fill="white"/>
<path d="M111.391 308.729L112.523 309.708L111.797 311.191L79.4745 321.242L79.1689 320.085L80.6394 318.496L111.391 308.729Z" fill="#B3B3B3"/>
<path d="M112.81 309.487L79.3394 320.421L58.936 280.141L91.8162 271.512L112.81 309.487Z" fill="#D0CDE1"/>
<path d="M110.29 304.024L108.854 305.128L92.9165 276.217L94.5637 275.413L110.29 304.024Z" fill="#3F3D56"/>
<path d="M106.996 305.632L92.8368 310.043L76.7637 280.31L90.771 276.942L106.996 305.632Z" fill="#3F3D56"/>
<path d="M67.107 283.572L70.0385 282.706C70.0385 282.706 86.3868 280.774 86.6255 286.141C86.8641 291.508 67.8442 289.018 67.8442 289.018L65.3081 285.418L67.107 283.572Z" fill="#FBBEBE"/>
<path d="M81.4465 307.7L85.5267 305.95C85.5267 305.95 97.8433 300.181 94.3101 296.422C90.7769 292.663 79.8801 299.191 79.8801 299.191L77.7939 301.257L81.4465 307.7Z" fill="#FBBEBE"/>
<path d="M77.8102 299.395C77.8102 299.395 84.4539 306.313 82.9421 307.937C81.4304 309.562 56.6406 330.935 50.4954 324.096C44.3502 317.258 14.4101 282.924 26.0603 279.979C37.7105 277.035 40.7886 283.919 40.7886 283.919L56.1683 311.409L77.8102 299.395Z" fill="white"/>
<path d="M57.9168 278.381L68.8301 282.247L68.6518 290.479L57.1099 289.177L57.9168 278.381Z" fill="white"/>
<path opacity="0.2" d="M67.7529 303.658L55.9947 310.849L42.5605 289.263L55.5283 307.044L67.7529 303.658Z" fill="black"/>
<path d="M26.0638 259.411C35.9101 259.411 43.8922 251.072 43.8922 240.785C43.8922 230.498 35.9101 222.158 26.0638 222.158C16.2174 222.158 8.23535 230.498 8.23535 240.785C8.23535 251.072 16.2174 259.411 26.0638 259.411Z" fill="#2F2E41"/>
<path d="M122.395 285.698L109.911 266.619L115.203 259.775L128.174 279.404L122.395 285.698Z" fill="#ECF39E"/>
<path d="M122.043 293.369L103.038 264.503L103.975 263.32L122.891 292.254L122.043 293.369Z" fill="#E6E6E6"/>
<path d="M119.594 296.177L100.589 267.311L101.526 266.128L120.442 295.062L119.594 296.177Z" fill="#E6E6E6"/>
<path d="M117.508 298.243L98.5029 269.378L99.4403 268.195L118.356 297.129L117.508 298.243Z" fill="#E6E6E6"/>
<path d="M33.9585 228.35H39.4737C42.2662 228.35 44.9442 229.509 46.9188 231.572C48.8934 233.634 50.0027 236.432 50.0027 239.35H33.9585V228.35Z" fill="#2F2E41"/>
<path d="M109.93 221.349L108.93 221.271C108.891 221.815 108.864 222.361 108.831 222.906L104.343 222.749L109.05 231.965L114.337 223.099L109.833 222.941C109.865 222.41 109.892 221.878 109.93 221.349Z" fill="#3F3D56"/>
<path d="M136.252 146.224L137.05 146.86C138.245 145.224 139.494 143.59 140.761 142.005L139.992 141.333C138.715 142.931 137.457 144.576 136.252 146.224Z" fill="#3F3D56"/>
<path d="M143.934 136.62L144.674 137.327C146.005 135.805 147.386 134.293 148.779 132.833L148.069 132.094C146.665 133.564 145.274 135.087 143.934 136.62Z" fill="#3F3D56"/>
<path d="M152.39 127.761L153.068 128.533C154.523 127.138 156.025 125.759 157.533 124.436L156.888 123.634C155.369 124.967 153.856 126.356 152.39 127.761Z" fill="#3F3D56"/>
<path d="M129.408 156.502L130.256 157.061C131.31 155.319 132.416 153.577 133.545 151.882L132.722 151.283C131.585 152.991 130.47 154.747 129.408 156.502Z" fill="#3F3D56"/>
<path d="M161.554 119.717L162.165 120.547C163.732 119.29 165.343 118.056 166.956 116.877L166.381 116.019C164.756 117.206 163.133 118.45 161.554 119.717Z" fill="#3F3D56"/>
<path d="M123.458 167.376L124.35 167.855C125.253 166.019 126.208 164.18 127.189 162.389L126.318 161.869C125.33 163.674 124.368 165.526 123.458 167.376Z" fill="#3F3D56"/>
<path d="M113.786 196.865L112.815 196.603C112.319 198.614 111.86 200.663 111.451 202.696L112.432 202.912C112.839 200.894 113.294 198.86 113.786 196.865Z" fill="#3F3D56"/>
<path d="M171.357 112.548L171.896 113.432C173.558 112.327 175.266 111.246 176.975 110.218L176.474 109.31C174.753 110.346 173.032 111.435 171.357 112.548Z" fill="#3F3D56"/>
<path d="M111.338 209.016L110.348 208.847C110.026 210.892 109.744 212.976 109.508 215.041L110.504 215.165C110.738 213.115 111.018 211.047 111.338 209.016Z" fill="#3F3D56"/>
<path d="M118.453 178.764L119.381 179.159C120.125 177.247 120.92 175.325 121.745 173.448L120.834 173.011C120.003 174.902 119.202 176.838 118.453 178.764Z" fill="#3F3D56"/>
<path d="M114.437 190.58L115.396 190.886C115.974 188.909 116.602 186.921 117.264 184.975L116.319 184.625C115.653 186.584 115.019 188.588 114.437 190.58Z" fill="#3F3D56"/>
<path d="M239.19 91.6665C241.155 91.5954 243.157 91.567 245.137 91.5864L245.146 90.5388C243.152 90.5194 241.135 90.5477 239.155 90.6194L239.19 91.6665Z" fill="#3F3D56"/>
<path d="M181.722 106.314L182.183 107.244C183.935 106.296 185.727 105.377 187.512 104.513L187.09 103.563C185.292 104.433 183.486 105.359 181.722 106.314Z" fill="#3F3D56"/>
<path d="M262.917 92.9727C264.873 93.262 266.847 93.6006 268.785 93.9794L268.969 92.9497C267.017 92.5681 265.028 92.2266 263.057 91.9353L262.917 92.9727Z" fill="#3F3D56"/>
<path d="M274.604 95.2573C276.525 95.7259 278.463 96.2467 280.364 96.805L280.635 95.7962C278.72 95.2338 276.768 94.7095 274.833 94.2373L274.604 95.2573Z" fill="#3F3D56"/>
<path d="M286.05 98.6192C287.922 99.2645 289.808 99.9633 291.654 100.696L292.01 99.7173C290.15 98.9786 288.251 98.2744 286.364 97.6243L286.05 98.6192Z" fill="#3F3D56"/>
<path d="M251.082 91.7767C253.056 91.8849 255.051 92.0404 257.012 92.2384L257.109 91.1958C255.134 90.9961 253.123 90.8395 251.134 90.7306L251.082 91.7767Z" fill="#3F3D56"/>
<path d="M227.217 91.5994L227.34 92.6394C229.294 92.3882 231.284 92.1788 233.253 92.0171L233.175 90.9725C231.19 91.1355 229.186 91.3465 227.217 91.5994Z" fill="#3F3D56"/>
<path d="M203.824 96.8408L204.121 97.8414C206.005 97.2319 207.928 96.6584 209.837 96.1369L209.583 95.1235C207.66 95.6486 205.723 96.2264 203.824 96.8408Z" fill="#3F3D56"/>
<path d="M192.567 101.065L192.948 102.034C194.771 101.253 196.634 100.505 198.483 99.8101L198.144 98.8243C196.28 99.5236 194.404 100.278 192.567 101.065Z" fill="#3F3D56"/>
<path d="M215.41 93.6759L215.62 94.7005C217.546 94.269 219.51 93.8764 221.458 93.5339L221.292 92.5006C219.329 92.8459 217.35 93.2413 215.41 93.6759Z" fill="#3F3D56"/>
<path d="M306.616 107.174L301.012 98.5219L299.042 102.759C298.565 102.537 298.09 102.309 297.614 102.094L297.215 103.056C297.681 103.266 298.141 103.486 298.603 103.702L296.642 107.919L306.616 107.174Z" fill="#3F3D56"/>
</g>
<defs>
<clipPath id="clip0_354_118">
<rect width="454" height="383" fill="white"/>
</clipPath>
</defs>
</svg>
